<svg xmlns="http://www.w3.org/2000/svg" viewBox="0 0 197.9 39"><title>LARED21 Últimas Noticias de Uruguay y del Mundo</title><path fill="#e20001" d="M0 0h6.5v33h19.3v6H0V0zm47.7 39v-4a11.2 11.2 0 0 1-9 4c-5.2 0-10-3-10-8.7 0-6 5-9 11.3-9a23.4 23.4 0 0 1 7.7 1V22c0-3.8-2.4-6-6.8-6a19.3 19.3 0 0 0-8 1.8l-1.7-5A23.8 23.8 0 0 1 42 10c8 0 12 4.3 12 11.7v17h-6.3zm.2-12.3a18.2 18.2 0 0 0-6.5-1c-4 0-6.4 1.5-6.4 4.2 0 2.5 2.5 4 5.5 4s7.3-2.4 7.3-5.8v-1.5zM58.2 0h16.3c4.6 0 8.2 1.5 10.6 3.8a11 11 0 0 1 3 8c0 6-3.6 9.6-8.8 11l10 16h-7.6l-9-15h-8v15h-6.5V.2zm16 18.3c4.5 0 7.5-2.4 7.5-6 0-4-2.8-6.2-7.6-6.2h-9.5v12.3H74zm15 6.2c0-8 5.7-14.4 13.6-14.4S116 17 116 25v1.8H95.6a7.7 7.7 0 0 0 8 7 10 10 0 0 0 7.5-3.3l3.7 3.3a14 14 0 0 1-11.4 5.2c-8 0-14.2-6-14.2-14.5zm20.6-2c-.5-4-3-7.3-7-7.3s-6.7 3-7.3 7.3H110zm35.5 16.2l-.3-.6a7 7 0 0 1-1.5-2.7 10.2 10.2 0 0 1-.7-3 8 8 0 0 1 1.7-4.4 46.6 46.6 0 0 1 3-3.7V0h-6.3v15a11.5 11.5 0 0 0-9.4-5c-6.6 0-13 5.2-13 14.4s6.5 14.4 13 14.4c4.5 0 7.4-2.3 9.4-5.2v5h4zm-12-5.3c-4.3 0-8-3.5-8-9 0-5.4 3.6-8.8 8-8.8s8 3.5 8 9c0 5.2-3.7 8.8-8 8.8z"/><path fill="#222220" d="M161.7 14.5c.6 0 1.5-.2 1.5-1s-1.5-1.2-2.2-1.3l-3.4-.4c4.2-2.2 10.8-5.7 15.6-5.7.8 0 2.2.4 2.2 1.6 0 3.2-5.8 6.3-8.3 7.7-4.3 2.5-21 11-21 16.3 0 2 .8 5 2.6 6.6s8.3 1 17.4-.8c5.2-1 6.3-5 7.8-9.4L151 32a95.7 95.7 0 0 1 14.4-8.8c14.4-7.6 14.4-10.4 14.4-13.5 0-8-2-9.3-6.6-9.3S158.7 2 155.2 6c-1.4 1.6-3.2 5.5-3.2 7.7s.2 2.3 1.4 2.3l2-.3zM190 6.7A178 178 0 0 0 179.5 22c-1.6 2.5-4 8.8-4 11.7s2.4 3.4 4.6 4.6a3.6 3.6 0 0 0 1.2.5.7.7 0 0 0 .8-.8l-.2-2c0-4 4.8-12 7-15.3 9-15.2 9-15 9-16.7s-1-4-2.6-4S187 4 185 5s-2.6 1.4-2.7 3-.2 1.4.5 1.4l1.6-.6z"/></svg>