<?xml version="1.0" encoding="UTF-8" standalone="no"?><!DOCTYPE svg PUBLIC "-//W3C//DTD SVG 1.1//EN" "http://www.w3.org/Graphics/SVG/1.1/DTD/svg11.dtd"><svg width="100%" height="100%" viewBox="0 0 100 100" version="1.1" xmlns="http://www.w3.org/2000/svg" xmlns:xlink="http://www.w3.org/1999/xlink" xml:space="preserve" xmlns:serif="http://www.serif.com/" style="fill-rule:evenodd;clip-rule:evenodd;stroke-linejoin:round;stroke-miterlimit:1.41421;"><path d="M51.146,20.775l-18.158,12.683l-18.158,-12.683l-1.718,2.459l19.876,13.882l19.876,-13.882l-1.718,-2.459Z" style="fill-rule:nonzero;"/><path d="M90.612,45.025l-28.112,0l0,-6.025l4.927,0l0,-3l-4.927,0l0,-18.106c0,-2.698 -2.195,-4.894 -4.894,-4.894l-48.122,0c-2.698,0 -4.894,2.195 -4.894,4.894l0,32.243c0,2.698 2.195,4.894 4.894,4.894l28.016,0l0,5.969l-18.864,0l0,3l18.864,0l0,10.999l-9.001,0l0,3l9.001,0l0,4.112c0,2.696 2.192,4.89 4.889,4.89l48.224,0c2.695,0 4.888,-2.193 4.888,-4.89l0,-32.197c-0.001,-2.695 -2.193,-4.889 -4.889,-4.889Zm-81.128,7.005c-1.044,0 -1.894,-0.85 -1.894,-1.894l0,-32.242c0.001,-1.044 0.85,-1.894 1.894,-1.894l48.122,0c1.044,0 1.894,0.85 1.894,1.894l0,18.106l-5,0l0,3l5,0l0,6.025l-17.111,0c-2.696,0 -4.889,2.193 -4.889,4.889l0,2.116l-28.016,0Zm83.016,30.08c0,1.042 -0.847,1.89 -1.888,1.89l-48.223,0c-1.042,0 -1.889,-0.848 -1.889,-1.89l0,-4.112l6,0l0,-3l-6,0l0,-25.084c0,-1.041 0.847,-1.889 1.889,-1.889l48.224,0c1.041,0 1.888,0.848 1.888,1.889l0,32.196l-0.001,0Z" style="fill-rule:nonzero;"/><rect x="28.5" y="74.999" width="17.98" height="3.004" style="fill:#52a3cc;"/><path d="M66.266,64.982l-18.158,-12.681l-1.718,2.459l19.876,13.883l19.875,-13.883l-1.718,-2.459l-18.157,12.681Z" style="fill-rule:nonzero;"/><rect x="13.5" y="67.999" width="19.011" height="3" style="fill:#52a3cc;"/><rect x="4.5" y="67.999" width="4.951" height="3" style="fill:#52a3cc;"/><rect x="67.5" y="29" width="20.907" height="3" style="fill:#52a3cc;"/><rect x="65.394" y="22" width="12.107" height="3" style="fill:#52a3cc;"/><rect x="70.5" y="35.999" width="4" height="3" style="fill:#52a3cc;"/><rect x="18.635" y="61.001" width="18.88" height="3" style="fill:#52a3cc;"/><rect x="54.504" y="36.001" width="12.93" height="3.001" style="fill:#52a3cc;"/></svg>